<?xml version="1.0" encoding="UTF-8" standalone="no"?>
<svg
   xmlns:dc="http://purl.org/dc/elements/1.1/"
   xmlns:cc="http://creativecommons.org/ns#"
   xmlns:rdf="http://www.w3.org/1999/02/22-rdf-syntax-ns#"
   xmlns:svg="http://www.w3.org/2000/svg"
   xmlns="http://www.w3.org/2000/svg"
   xmlns:sodipodi="http://sodipodi.sourceforge.net/DTD/sodipodi-0.dtd"
   xmlns:inkscape="http://www.inkscape.org/namespaces/inkscape"
   id="b3610dfe-b8fa-4701-9393-2c36a069038b"
   data-name="Layer 1"
   width="470"
   height="500"
   viewBox="0 0 469.99999 500"
   version="1.1"
   sodipodi:docname="undraw_date_picker_gorr.svg"
   inkscape:version="0.92.3 (2405546, 2018-03-11)">
  <metadata
     id="metadata110">
    <rdf:RDF>
      <cc:Work
         rdf:about="">
        <dc:format>image/svg+xml</dc:format>
        <dc:type
           rdf:resource="http://purl.org/dc/dcmitype/StillImage" />
        <dc:title></dc:title>
      </cc:Work>
    </rdf:RDF>
  </metadata>
  <defs
     id="defs108" />
  <sodipodi:namedview
     pagecolor="#ffffff"
     bordercolor="#666666"
     borderopacity="1"
     objecttolerance="10"
     gridtolerance="10"
     guidetolerance="10"
     inkscape:pageopacity="0"
     inkscape:pageshadow="2"
     inkscape:window-width="1440"
     inkscape:window-height="872"
     id="namedview106"
     showgrid="false"
     inkscape:zoom="0.49460311"
     inkscape:cx="274.73774"
     inkscape:cy="487.07931"
     inkscape:window-x="1366"
     inkscape:window-y="0"
     inkscape:window-maximized="1"
     inkscape:current-layer="b3610dfe-b8fa-4701-9393-2c36a069038b" />
  <path
     d="M 457.86028,488.69448 H 38.860281 a 7.5082,7.265192 0 0 1 -7.5,-6.77344 V 39.228334 a 7.5082,7.265192 0 0 1 7.5,-7.257257 H 457.86028 a 7.5082,7.265192 0 0 1 7.5,7.257257 V 481.92104 a 7.5082,7.265192 0 0 1 -7.5,6.77344 z M 38.860281,34.87398 a 4.50493,4.3591249 0 0 0 -4.5,4.354354 V 481.92104 a 4.50492,4.3591152 0 0 0 4.5,3.87053 H 457.86028 a 4.50491,4.3591055 0 0 0 4.5,-3.87053 V 39.228334 a 4.50492,4.3591152 0 0 0 -4.5,-4.354354 z"
     id="path30"
     inkscape:connector-curvature="0"
     style="fill:#e6e6e6;stroke-width:0.98368406" />
  <ellipse
     cx="125.3225"
     cy="187.76021"
     id="circle32"
     style="fill:#e6e6e6;stroke-width:0.98368406"
     rx="9.8430204"
     ry="9.5244446" />
  <ellipse
     cx="166.3351"
     cy="187.76021"
     id="circle34"
     style="fill:#e6e6e6;stroke-width:0.98368406"
     rx="9.8430204"
     ry="9.5244446" />
  <ellipse
     cx="207.34769"
     cy="187.76021"
     id="circle36"
     style="fill:#6c63ff;stroke-width:0.98368406"
     rx="9.8430204"
     ry="9.5244446" />
  <ellipse
     cx="248.36028"
     cy="187.76021"
     id="circle38"
     style="fill:#6c63ff;stroke-width:0.98368406"
     rx="9.8430204"
     ry="9.5244446" />
  <ellipse
     cx="289.37289"
     cy="187.76021"
     id="circle40"
     style="fill:#6c63ff;stroke-width:0.98368406"
     rx="9.8430204"
     ry="9.5244446" />
  <ellipse
     cx="330.38547"
     cy="187.76021"
     id="circle42"
     style="fill:#e6e6e6;stroke-width:0.98368406"
     rx="9.8430204"
     ry="9.5244446" />
  <ellipse
     cx="371.39807"
     cy="187.76021"
     id="circle44"
     style="fill:#e6e6e6;stroke-width:0.98368406"
     rx="9.8430204"
     ry="9.5244446" />
  <ellipse
     cx="125.3225"
     cy="217.75687"
     id="circle46"
     style="fill:#e6e6e6;stroke-width:0.98368406"
     rx="9.8430204"
     ry="9.5244446" />
  <ellipse
     cx="166.3351"
     cy="217.75687"
     id="circle48"
     style="fill:#e6e6e6;stroke-width:0.98368406"
     rx="9.8430204"
     ry="9.5244446" />
  <ellipse
     cx="207.34769"
     cy="217.75687"
     id="circle50"
     style="fill:#e6e6e6;stroke-width:0.98368406"
     rx="9.8430204"
     ry="9.5244446" />
  <ellipse
     cx="248.36028"
     cy="217.75687"
     id="circle52"
     style="fill:#e6e6e6;stroke-width:0.98368406"
     rx="9.8430204"
     ry="9.5244446" />
  <ellipse
     cx="289.37289"
     cy="217.75687"
     id="circle54"
     style="fill:#e6e6e6;stroke-width:0.98368406"
     rx="9.8430204"
     ry="9.5244446" />
  <ellipse
     cx="330.38547"
     cy="217.75687"
     id="circle56"
     style="fill:#e6e6e6;stroke-width:0.98368406"
     rx="9.8430204"
     ry="9.5244446" />
  <ellipse
     cx="371.39807"
     cy="217.75687"
     id="circle58"
     style="fill:#e6e6e6;stroke-width:0.98368406"
     rx="9.8430204"
     ry="9.5244446" />
  <ellipse
     cx="125.3225"
     cy="247.75354"
     id="circle60"
     style="fill:#6c63ff;stroke-width:0.98368406"
     rx="9.8430204"
     ry="9.5244446" />
  <ellipse
     cx="166.3351"
     cy="247.75354"
     id="circle62"
     style="fill:#6c63ff;stroke-width:0.98368406"
     rx="9.8430204"
     ry="9.5244446" />
  <ellipse
     cx="207.34769"
     cy="247.75354"
     id="circle64"
     style="fill:#6c63ff;stroke-width:0.98368406"
     rx="9.8430204"
     ry="9.5244446" />
  <ellipse
     cx="248.36028"
     cy="247.75354"
     id="circle66"
     style="fill:#e6e6e6;stroke-width:0.98368406"
     rx="9.8430204"
     ry="9.5244446" />
  <ellipse
     cx="289.37289"
     cy="247.75354"
     id="circle68"
     style="fill:#e6e6e6;stroke-width:0.98368406"
     rx="9.8430204"
     ry="9.5244446" />
  <ellipse
     cx="330.38547"
     cy="247.75354"
     id="circle70"
     style="fill:#e6e6e6;stroke-width:0.98368406"
     rx="9.8430204"
     ry="9.5244446" />
  <ellipse
     cx="371.39807"
     cy="247.75354"
     id="circle72"
     style="fill:#e6e6e6;stroke-width:0.98368406"
     rx="9.8430204"
     ry="9.5244446" />
  <ellipse
     cx="125.3225"
     cy="277.75018"
     id="circle74"
     style="fill:#e6e6e6;stroke-width:0.98368406"
     rx="9.8430204"
     ry="9.5244446" />
  <ellipse
     cx="166.3351"
     cy="277.75018"
     id="circle76"
     style="fill:#e6e6e6;stroke-width:0.98368406"
     rx="9.8430204"
     ry="9.5244446" />
  <ellipse
     cx="125.3225"
     cy="307.74686"
     id="circle78"
     style="fill:#e6e6e6;stroke-width:0.98368406"
     rx="9.8430204"
     ry="9.5244446" />
  <ellipse
     cx="166.3351"
     cy="307.74686"
     id="circle80"
     style="fill:#e6e6e6;stroke-width:0.98368406"
     rx="9.8430204"
     ry="9.5244446" />
  <ellipse
     cx="207.34769"
     cy="307.74686"
     id="circle82"
     style="fill:#e6e6e6;stroke-width:0.98368406"
     rx="9.8430204"
     ry="9.5244446" />
  <ellipse
     cx="207.34769"
     cy="277.75018"
     id="circle84"
     style="fill:#e6e6e6;stroke-width:0.98368406"
     rx="9.8430204"
     ry="9.5244446" />
  <ellipse
     cx="248.36028"
     cy="277.75018"
     id="circle86"
     style="fill:#6c63ff;stroke-width:0.98368406"
     rx="9.8430204"
     ry="9.5244446" />
  <ellipse
     cx="289.37289"
     cy="277.75018"
     id="circle88"
     style="fill:#6c63ff;stroke-width:0.98368406"
     rx="9.8430204"
     ry="9.5244446" />
  <ellipse
     cx="330.38547"
     cy="277.75018"
     id="circle90"
     style="fill:#6c63ff;stroke-width:0.98368406"
     rx="9.8430204"
     ry="9.5244446" />
  <ellipse
     cx="371.39807"
     cy="277.75018"
     id="circle92"
     style="fill:#e6e6e6;stroke-width:0.98368406"
     rx="9.8430204"
     ry="9.5244446" />
  <path
     id="a332a05d-d774-4fd2-8531-ab97682a63e9"
     data-name="Path 40"
     d="m 173.84895,103.0922 a 5.9500008,5.757425 0 0 0 0,11.51485 h 149.08572 a 5.9508016,5.7581999 0 1 0 0.19525,-11.51485 q -0.0976,0 -0.19525,0 z"
     inkscape:connector-curvature="0"
     style="fill:#3f3d56;stroke-width:0.98368406" />
  <path
     d="m 356.74366,101.54398 a 1.17,1.1321322 0 0 0 0,1.54822 l 5.02282,4.93493 h -12.38581 a 1.17006,1.1321902 0 0 0 0,2.22556 h 12.38581 l -5.02282,4.83817 a 1.1861639,1.1477728 0 1 0 1.65467,1.64498 l 7.0203,-6.77344 a 1.1701,1.1322289 0 0 0 0,-1.64498 l -7.0203,-6.77344 a 1.17,1.1321322 0 0 0 -1.65467,0 z"
     id="path95"
     inkscape:connector-curvature="0"
     style="fill:#e6e6e6;stroke-width:0.98368406" />
  <path
     d="m 139.97691,101.54398 a 1.17,1.1321322 0 0 1 0,1.54822 l -5.02282,4.93493 h 12.38581 a 1.17006,1.1321902 0 1 1 0,2.22556 h -12.38581 l 5.02282,4.83817 a 1.1861673,1.1477762 0 0 1 -1.65468,1.64498 l -7.02029,-6.77344 a 1.1701,1.1322289 0 0 1 0,-1.64498 l 7.02029,-6.77344 a 1.17,1.1321322 0 0 1 1.65468,0 z"
     id="path97"
     inkscape:connector-curvature="0"
     style="fill:#e6e6e6;stroke-width:0.98368406" />
  <path
     d="m 165.51485,378.2874 a 21.32655,20.636302 0 1 0 0,41.22122 h 165.69087 a 21.32655,20.636302 0 1 0 0,-41.22122 z"
     id="path99"
     inkscape:connector-curvature="0"
     style="fill:#e6e6e6;stroke-width:0.98368406" />
  <path
     d="M 38.207011,71.450557 A 34.27248,33.163228 0 1 1 72.479491,38.2607 34.31124,33.200733 0 0 1 38.207011,71.450557 Z"
     id="path101"
     inkscape:connector-curvature="0"
     style="fill:#6c63ff;stroke-width:0.98368406" />
  <path
     d="m 51.730011,35.067506 h -10.14219 v -9.86987 a 3.38081,3.2713878 0 1 0 -6.76162,0 v 9.86987 h -10.14233 a 3.38076,3.2713394 0 0 0 0,6.48315 h 10.14233 v 9.86987 a 3.38081,3.2713878 0 0 0 6.76162,0 v -9.86987 h 10.14219 a 3.38076,3.2713394 0 1 0 0,-6.48315 z"
     id="path103"
     inkscape:connector-curvature="0"
     style="fill:#ffffff;stroke-width:0.98368406" />
</svg>
